<svg width="19" height="19" viewBox="0 0 19 19" fill="none" xmlns="http://www.w3.org/2000/svg">
<path fill-rule="evenodd" clip-rule="evenodd" d="M9.4998 11.8871L15.4657 17.8529C15.7822 18.1695 16.2116 18.3474 16.6593 18.3474C17.107 18.3474 17.5364 18.1695 17.8529 17.8529C18.1695 17.5364 18.3473 17.107 18.3473 16.6593C18.3473 16.2116 18.1695 15.7823 17.8529 15.4657L11.8848 9.49982L17.8518 3.53394C18.0085 3.37719 18.1327 3.19112 18.2175 2.98635C18.3023 2.78157 18.3459 2.56211 18.3458 2.34048C18.3458 2.11886 18.3021 1.89941 18.2172 1.69468C18.1323 1.48995 18.008 1.30393 17.8512 1.14726C17.6945 0.990581 17.5084 0.866314 17.3036 0.78155C17.0989 0.696787 16.8794 0.653186 16.6578 0.653238C16.4362 0.653291 16.2167 0.696994 16.012 0.781855C15.8072 0.866715 15.6212 0.99107 15.4645 1.14782L9.4998 7.11369L3.53392 1.14782C3.37833 0.986574 3.19219 0.85793 2.98635 0.769394C2.78051 0.680858 2.5591 0.634203 2.33503 0.632151C2.11097 0.630099 1.88874 0.672691 1.68132 0.757442C1.47389 0.842193 1.28542 0.967406 1.1269 1.12577C0.968382 1.28414 0.842992 1.4725 0.758045 1.67984C0.673098 1.88719 0.630296 2.10938 0.632137 2.33344C0.633978 2.55751 0.680424 2.77896 0.768766 2.98489C0.857107 3.19081 0.985575 3.37708 1.14667 3.53282L7.1148 9.49982L1.1478 15.4668C0.986701 15.6226 0.858233 15.8088 0.769891 16.0148C0.681549 16.2207 0.635103 16.4421 0.633262 16.6662C0.631421 16.8903 0.674223 17.1124 0.75917 17.3198C0.844116 17.5271 0.969507 17.7155 1.12802 17.8739C1.28654 18.0322 1.47501 18.1574 1.68244 18.2422C1.88987 18.3269 2.1121 18.3695 2.33616 18.3675C2.56022 18.3654 2.78163 18.3188 2.98747 18.2302C3.19331 18.1417 3.37946 18.0131 3.53505 17.8518L9.4998 11.8871Z" fill="#9FA8BC"/>
</svg>
