<svg width="40" height="40" viewBox="0 0 40 40" fill="none" xmlns="http://www.w3.org/2000/svg">
<rect x="0.5" y="0.5" width="39" height="39" rx="11.5" fill="white" stroke="#F2F2F2"/>
<path d="M20 17C19.59 17 19.25 16.7184 19.25 16.3789V13.6211C19.25 13.2816 19.59 13 20 13C20.41 13 20.75 13.2816 20.75 13.6211V16.3789C20.75 16.7267 20.41 17 20 17Z" fill="#9FA8BC"/>
<path d="M20.0161 27.6454C17.6104 27.6454 15.214 27.2668 12.9295 26.5096C12.081 26.2326 11.4376 25.6324 11.1578 24.8753C10.8781 24.1181 10.9714 23.2502 11.4283 22.493L12.6125 20.5355C12.8735 20.1015 13.1067 19.289 13.1067 18.7811V16.8421C13.1067 13.0655 16.2024 10 20.0161 10C23.8298 10 26.9255 13.0655 26.9255 16.8421V18.7811C26.9255 19.2797 27.1586 20.1015 27.4197 20.5355L28.6039 22.493C29.0421 23.2132 29.1167 24.072 28.8277 24.8568C28.5386 25.6417 27.9046 26.2419 27.1027 26.5096C24.8182 27.276 22.4218 27.6454 20.0161 27.6454ZM20.0161 11.3943C16.9763 11.3943 14.5053 13.8412 14.5053 16.8513V18.7904C14.5053 19.5383 14.2069 20.6186 13.8153 21.2557L12.6311 23.2225C12.3887 23.6195 12.3327 24.0443 12.4726 24.4136C12.6125 24.783 12.9295 25.06 13.3771 25.2077C17.6663 26.6204 22.3845 26.6204 26.6737 25.2077C27.0747 25.0784 27.3824 24.783 27.5223 24.3951C27.6714 24.0073 27.6248 23.5826 27.4104 23.2225L26.2262 21.265C25.8345 20.6278 25.5361 19.5475 25.5361 18.7996V16.8605C25.5268 13.8412 23.0558 11.3943 20.0161 11.3943Z" fill="#9FA8BC"/>
<path d="M20 30C18.951 30 17.9216 29.5937 17.1765 28.8919C16.4314 28.1902 16 27.2207 16 26.2327H17.4706C17.4706 26.8605 17.7451 27.47 18.2157 27.9132C18.6863 28.3564 19.3333 28.6149 20 28.6149C21.3922 28.6149 22.5294 27.5438 22.5294 26.2327H24C24 28.3102 22.2059 30 20 30Z" fill="#9FA8BC"/>
<circle cx="27" cy="13" r="7" fill="#F33F19"/>
<path d="M24.185 17V10.84H23.4L23.635 10H25.025V17H24.185ZM26.2223 17V16.255C26.4789 16.025 26.7673 15.7683 27.0873 15.485C27.4073 15.1983 27.7256 14.9 28.0423 14.59C28.3623 14.2767 28.6556 13.9667 28.9223 13.66C29.1889 13.3533 29.4039 13.0633 29.5673 12.79C29.7306 12.5133 29.8123 12.2717 29.8123 12.065C29.8123 11.8183 29.7523 11.5933 29.6323 11.39C29.5123 11.1833 29.3506 11.0183 29.1473 10.895C28.9473 10.7717 28.7239 10.71 28.4773 10.71C28.2306 10.71 28.0039 10.7717 27.7973 10.895C27.5939 11.0183 27.4306 11.1833 27.3073 11.39C27.1873 11.5933 27.1273 11.8183 27.1273 12.065H26.2873C26.2873 11.655 26.3873 11.285 26.5873 10.955C26.7873 10.6217 27.0523 10.3583 27.3823 10.165C27.7123 9.96833 28.0773 9.87 28.4773 9.87C28.8773 9.87 29.2406 9.96833 29.5673 10.165C29.8973 10.3617 30.1606 10.6267 30.3573 10.96C30.5539 11.29 30.6523 11.6583 30.6523 12.065C30.6523 12.2983 30.5956 12.55 30.4823 12.82C30.3689 13.0867 30.2139 13.3617 30.0173 13.645C29.8206 13.9283 29.5973 14.215 29.3473 14.505C29.0973 14.7917 28.8339 15.075 28.5573 15.355C28.2806 15.635 28.0056 15.9033 27.7323 16.16H30.7423V17H26.2223Z" fill="white"/>
</svg>
