<svg width="64" height="64" viewBox="0 0 64 64" fill="none" xmlns="http://www.w3.org/2000/svg">
<g clip-path="url(#clip0_1108_2554)">
<path d="M55.2178 21.0286L35.5556 0.804572C35.0559 0.290039 34.3781 0.00064019 33.6711 0H17.7778C15.1845 0 12.6975 1.05959 10.8638 2.94567C9.03016 4.83175 8 7.38982 8 10.0571V53.9429C8 56.6102 9.03016 59.1683 10.8638 61.0543C12.6975 62.9404 15.1845 64 17.7778 64H46.2222C48.8154 64 51.3025 62.9404 53.1362 61.0543C54.9698 59.1683 56 56.6102 56 53.9429V22.8571C55.972 22.1681 55.6927 21.5153 55.2178 21.0286ZM36.4444 9.36229L46.8978 20.1143H36.4444V9.36229ZM46.2222 58.5143H17.7778C16.599 58.5143 15.4686 58.0327 14.6351 57.1754C13.8016 56.318 13.3333 55.1553 13.3333 53.9429V10.0571C13.3333 8.84472 13.8016 7.68196 14.6351 6.82465C15.4686 5.96735 16.599 5.48571 17.7778 5.48571H31.1111V22.8571C31.1203 23.5816 31.4042 24.2738 31.9023 24.7862C32.4005 25.2985 33.0734 25.5905 33.7778 25.6H50.6667V53.9429C50.6667 55.1553 50.1984 56.318 49.3649 57.1754C48.5314 58.0327 47.401 58.5143 46.2222 58.5143Z" fill="#246BFD"/>
<path d="M35.7301 42.8302C34.1949 41.8642 33.0395 40.396 32.4594 38.6741C32.997 37.0633 33.1593 35.3503 32.9338 33.6668C32.8618 33.2427 32.6555 32.8531 32.3455 32.5557C32.0355 32.2582 31.6382 32.0688 31.2125 32.0155C30.7868 31.9621 30.3552 32.0476 29.9818 32.2594C29.6083 32.4711 29.3127 32.7978 29.1388 33.1911C28.8546 35.2151 29.0689 37.2781 29.763 39.1999C28.8147 41.4213 27.7565 43.5938 26.5922 45.7094C24.8195 46.7109 22.3977 48.2131 22.0232 49.9406C21.7236 51.3427 24.3451 54.9479 28.8142 47.1365C30.8014 46.3968 32.8369 45.7945 34.9062 45.3339C36.4359 46.2109 38.1422 46.7328 39.8996 46.8611C40.3031 46.8716 40.7007 46.7622 41.0425 46.5468C41.3842 46.3313 41.6548 46.0194 41.8202 45.6501C41.9856 45.2809 42.0385 44.8709 41.9722 44.4716C41.9059 44.0723 41.7234 43.7016 41.4476 43.4061C40.399 42.3295 37.2781 42.6299 35.7301 42.8302ZM23.7959 50.3412C24.4955 49.1405 25.4195 48.0864 26.5173 47.2367C24.8195 49.9406 23.7959 50.4163 23.7959 50.3662V50.3412ZM31.0862 33.2913C31.7354 33.2913 31.6855 36.1705 31.236 36.9466C30.8975 35.7659 30.8461 34.521 31.0862 33.3163V33.2913ZM28.9141 45.5091C29.76 43.9615 30.4943 42.355 31.1112 40.7021C31.7726 41.9363 32.6925 43.0125 33.8077 43.8567C32.1325 44.2775 30.4956 44.8386 28.9141 45.5342V45.5091ZM40.6486 45.0585C40.6486 45.0585 40.1992 45.6093 37.328 44.3574C40.4489 44.1572 40.9732 44.8832 40.6486 45.0835V45.0585Z" fill="#246BFD"/>
</g>
<defs>
<clipPath id="clip0_1108_2554">
<rect width="64" height="64" fill="white"/>
</clipPath>
</defs>
</svg>
