<svg width="32" height="32" viewBox="0 0 32 32" fill="none" xmlns="http://www.w3.org/2000/svg">
<path d="M24.7067 11.8858L17.3333 4.30181C17.146 4.10886 16.8918 4.00033 16.6267 4.00009H10.6667C9.69421 4.00009 8.76157 4.39744 8.07394 5.10472C7.38631 5.812 7 6.77128 7 7.77152V24.2287C7 25.2289 7.38631 26.1882 8.07394 26.8955C8.76157 27.6027 9.69421 28.0001 10.6667 28.0001H21.3333C22.3058 28.0001 23.2384 27.6027 23.9261 26.8955C24.6137 26.1882 25 25.2289 25 24.2287V12.5715C24.9895 12.3131 24.8848 12.0683 24.7067 11.8858ZM17.6667 7.51095L21.5867 11.5429H17.6667V7.51095ZM21.3333 25.9429H10.6667C10.2246 25.9429 9.80072 25.7623 9.48816 25.4408C9.17559 25.1194 9 24.6833 9 24.2287V7.77152C9 7.31686 9.17559 6.88083 9.48816 6.55934C9.80072 6.23785 10.2246 6.05723 10.6667 6.05723H15.6667V12.5715C15.6701 12.8432 15.7766 13.1028 15.9634 13.2949C16.1502 13.487 16.4025 13.5965 16.6667 13.6001H23V24.2287C23 24.6833 22.8244 25.1194 22.5118 25.4408C22.1993 25.7623 21.7754 25.9429 21.3333 25.9429Z" fill="#246BFD"/>
<path d="M17.8651 19.4151C17.0974 18.9321 16.5198 18.198 16.2297 17.3371C16.4985 16.5317 16.5796 15.6752 16.4669 14.8334C16.4309 14.6213 16.3278 14.4265 16.1728 14.2778C16.0178 14.1291 15.8191 14.0344 15.6063 14.0077C15.3934 13.9811 15.1776 14.0238 14.9909 14.1297C14.8041 14.2356 14.6564 14.3989 14.5694 14.5956C14.4273 15.6076 14.5344 16.6391 14.8815 17.6C14.4074 18.7107 13.8782 19.7969 13.2961 20.8547C12.4098 21.3554 11.1988 22.1065 11.0116 22.9703C10.8618 23.6713 12.1726 25.474 14.4071 21.5683C15.4007 21.1984 16.4184 20.8972 17.4531 20.6669C18.2179 21.1055 19.0711 21.3664 19.9498 21.4306C20.1516 21.4358 20.3504 21.3811 20.5212 21.2734C20.6921 21.1657 20.8274 21.0097 20.9101 20.8251C20.9928 20.6405 21.0192 20.4354 20.9861 20.2358C20.953 20.0362 20.8617 19.8508 20.7238 19.703C20.1995 19.1647 18.639 19.315 17.8651 19.4151ZM11.8979 23.1706C12.2478 22.5703 12.7098 22.0432 13.2586 21.6183C12.4098 22.9703 11.8979 23.2081 11.8979 23.1831V23.1706ZM15.5431 14.6456C15.8677 14.6456 15.8427 16.0852 15.618 16.4733C15.4488 15.883 15.4231 15.2605 15.5431 14.6582V14.6456ZM14.4571 20.7546C14.88 19.9807 15.2471 19.1775 15.5556 18.3511C15.8863 18.9682 16.3462 19.5062 16.9038 19.9284C16.0663 20.1387 15.2478 20.4193 14.4571 20.7671V20.7546ZM20.3243 20.5292C20.3243 20.5292 20.0996 20.8046 18.664 20.1787C20.2244 20.0786 20.4866 20.4416 20.3243 20.5418V20.5292Z" fill="#246BFD"/>
</svg>
