<svg width="24" height="24" viewBox="0 0 24 24" fill="none" xmlns="http://www.w3.org/2000/svg">
<path d="M21.002 5.97998C17.672 5.64998 14.322 5.47998 10.982 5.47998C9.00195 5.47998 7.02195 5.57998 5.04195 5.77998L3.00195 5.97998" stroke="#9FA8BC" stroke-width="1.5" stroke-linecap="round" stroke-linejoin="round"/>
<path d="M8.50195 4.97L8.72195 3.66C8.88195 2.71 9.00195 2 10.692 2H13.312C15.002 2 15.132 2.75 15.282 3.67L15.502 4.97" stroke="#9FA8BC" stroke-width="1.5" stroke-linecap="round" stroke-linejoin="round"/>
<path d="M18.8519 9.13989L18.2019 19.2099C18.0919 20.7799 18.0019 21.9999 15.2119 21.9999H8.79186C6.00186 21.9999 5.91186 20.7799 5.80186 19.2099L5.15186 9.13989" stroke="#9FA8BC" stroke-width="1.5" stroke-linecap="round" stroke-linejoin="round"/>
<path d="M10.332 16.5H13.662" stroke="#9FA8BC" stroke-width="1.5" stroke-linecap="round" stroke-linejoin="round"/>
<path d="M9.50195 12.5H14.502" stroke="#9FA8BC" stroke-width="1.5" stroke-linecap="round" stroke-linejoin="round"/>
</svg>
