<svg width="24" height="24" viewBox="0 0 24 24" fill="none" xmlns="http://www.w3.org/2000/svg">
<path d="M15.5819 11.9999C15.5819 13.9799 13.9819 15.5799 12.0019 15.5799C10.0219 15.5799 8.42188 13.9799 8.42188 11.9999C8.42188 10.0199 10.0219 8.41992 12.0019 8.41992C13.9819 8.41992 15.5819 10.0199 15.5819 11.9999Z" stroke="#9FA8BC" stroke-width="1.5" stroke-linecap="round" stroke-linejoin="round"/>
<path d="M12.0018 20.27C15.5318 20.27 18.8218 18.19 21.1118 14.59C22.0118 13.18 22.0118 10.81 21.1118 9.39997C18.8218 5.79997 15.5318 3.71997 12.0018 3.71997C8.4718 3.71997 5.1818 5.79997 2.8918 9.39997C1.9918 10.81 1.9918 13.18 2.8918 14.59C5.1818 18.19 8.4718 20.27 12.0018 20.27Z" stroke="#9FA8BC" stroke-width="1.5" stroke-linecap="round" stroke-linejoin="round"/>
</svg>
